<svg version="1.1" id="Layer_1" xmlns="http://www.w3.org/2000/svg" xmlns:xlink="http://www.w3.org/1999/xlink" x="0px" y="0px"
	 width="100%" viewBox="0 0 1200 1200" enable-background="new 0 0 1200 1200" xml:space="preserve">
<path fill="#4F5D73" opacity="1.000000" stroke="none"
	d="
M650.000000,1201.000000
	C617.645752,1201.000000 585.291565,1201.000000 552.506287,1200.576660
	C548.896851,1199.745483 545.712280,1199.380981 542.541138,1198.923096
	C526.740784,1196.640625 510.919800,1194.487061 495.151337,1192.000854
	C469.262512,1187.918945 443.873596,1181.564697 419.014526,1173.386230
	C401.690491,1167.686890 384.398041,1161.584961 367.773621,1154.139648
	C344.637360,1143.778076 321.590424,1132.967651 299.516266,1120.551758
	C275.704376,1107.158447 252.827499,1092.004883 231.806747,1074.366943
	C215.594345,1060.763550 199.404266,1047.114624 183.672348,1032.965576
	C175.414413,1025.538574 167.940903,1017.191956 160.507004,1008.907227
	C149.248245,996.359924 137.538681,984.098755 127.465324,970.635132
	C113.688217,952.220886 100.895691,933.033569 88.355515,913.739380
	C72.120277,888.759949 58.936428,862.044373 47.430450,834.646545
	C34.997692,805.041870 24.448101,774.678467 17.641527,743.190735
	C14.167961,727.121704 10.746511,711.019043 8.092375,694.802124
	C5.806286,680.833984 4.673099,666.678223 2.910320,652.620483
	C2.792623,651.681946 1.660372,650.870544 1.000002,650.000000
	C1.000000,617.645752 1.000000,585.291565 1.423365,552.505432
	C2.229228,550.894775 2.826788,549.739868 2.961125,548.533508
	C4.384393,535.751404 4.954448,522.817627 7.277368,510.205109
	C11.261668,488.571960 15.866603,467.026276 21.046293,445.646240
	C29.332176,411.444885 41.790546,378.646210 56.687088,346.814087
	C72.998291,311.958984 92.326492,278.823517 115.083214,247.748154
	C132.103470,224.506210 150.700699,202.569778 170.723267,181.870346
	C178.112946,174.230865 185.925659,166.985489 193.765854,159.800888
	C202.674713,151.636963 211.309464,143.038742 220.985703,135.875137
	C242.023834,120.299995 263.423584,105.185425 285.090881,90.495216
	C310.838287,73.038742 338.840668,59.567661 367.352356,47.430290
	C397.210358,34.719780 428.022614,24.437580 459.729309,17.245670
	C475.440369,13.681993 491.293762,10.627937 507.201080,8.082850
	C521.177734,5.846655 535.323364,4.673083 549.379333,2.910291
	C550.317993,2.792571 551.129395,1.660350 552.000000,0.999992
	C584.354248,1.000000 616.708435,1.000000 649.495056,1.424699
	C651.106628,2.231072 652.261963,2.827079 653.468689,2.961421
	C666.240906,4.383259 679.164795,4.952261 691.767456,7.273657
	C713.396179,11.257645 734.935669,15.868619 756.313721,21.038773
	C790.520813,29.311550 823.319458,41.775085 855.149475,56.675308
	C889.892639,72.939247 922.854431,92.292511 953.892822,114.912064
	C976.891296,131.672470 998.555908,150.000519 1019.070679,169.678772
	C1027.097900,177.378632 1034.667969,185.571976 1042.197876,193.768646
	C1050.371826,202.666260 1058.977661,211.297607 1066.121948,220.984192
	C1082.522705,243.221680 1098.814697,265.595734 1113.915894,288.720764
	C1131.184937,315.165619 1144.834229,343.677673 1156.801025,372.883118
	C1168.295044,400.935272 1177.959473,429.664307 1184.562256,459.302063
	C1188.098389,475.174683 1191.315796,491.143585 1193.912109,507.192780
	C1196.172241,521.163208 1197.326172,535.311340 1199.089111,549.365967
	C1199.207397,550.309021 1200.339478,551.124939 1201.000000,552.000000
	C1201.000000,584.354248 1201.000000,616.708435 1200.576660,649.493103
	C1199.106567,657.499817 1198.060181,665.076111 1197.012939,672.652344
	C1195.276489,685.212952 1194.353027,697.953308 1191.625122,710.294739
	C1186.697876,732.585510 1180.955566,754.708130 1175.069214,776.771667
	C1167.871582,803.750488 1157.260132,829.529053 1145.528442,854.781250
	C1129.791992,888.653687 1110.807983,920.676941 1089.049927,951.086975
	C1072.469849,974.260010 1054.089844,995.900085 1034.667603,1016.666016
	C1026.742310,1025.139648 1018.105530,1032.964478 1009.580933,1040.856201
	C1000.225281,1049.517090 991.157959,1058.619507 981.018066,1066.275513
	C961.886719,1080.720459 942.321106,1094.626587 922.484680,1108.091919
	C899.622070,1123.611450 875.021118,1136.086304 849.917725,1147.598999
	C815.375122,1163.440796 779.693298,1175.981567 742.681580,1184.550781
	C726.838806,1188.218750 710.835388,1191.317139 694.781860,1193.913086
	C680.815613,1196.171631 666.672119,1197.327026 652.621887,1199.089600
	C651.682861,1199.207520 650.870972,1200.339600 650.000000,1201.000000
M967.915039,437.194702
	C962.700745,429.784119 958.303406,421.564911 952.017761,415.214844
	C946.844971,409.989044 939.432495,406.980164 932.547363,402.466003
	C922.457214,380.666748 906.229065,365.486572 882.756042,359.962280
	C871.651733,357.348969 859.778442,357.298920 848.252258,357.287476
	C653.608459,357.094299 458.964386,357.082611 264.320404,357.089447
	C259.536041,357.089630 254.619019,357.171082 249.988968,358.213989
	C221.131531,364.713928 201.401047,381.642609 191.763885,409.919891
	C187.868011,421.351074 188.409088,433.101776 188.442307,444.913330
	C188.595001,499.240021 188.551651,553.567444 188.497910,607.894531
	C188.457352,648.887512 188.204544,689.880432 188.223404,730.873291
	C188.233200,752.145691 195.253998,770.946655 210.910446,785.498047
	C217.976822,792.065735 226.917267,796.617065 235.182129,802.765625
	C240.284439,814.483826 249.304611,822.784180 259.332611,830.121765
	C262.068085,832.123352 263.658020,833.844971 263.437134,837.762878
	C263.112610,843.520203 263.614563,849.440735 264.628143,855.138062
	C271.248291,892.349243 302.112244,917.993713 340.005829,917.994873
	C537.084473,918.000793 734.163147,918.005066 931.241821,917.957153
	C936.549988,917.955872 941.898315,917.663269 947.158569,916.976013
	C962.791870,914.933472 976.112549,908.300598 988.024902,897.758972
	C1002.209717,885.206482 1007.631348,868.282532 1012.581665,851.293274
	C1014.796326,843.692749 1013.716675,835.103638 1013.878906,826.958069
	C1013.911560,825.321472 1012.799011,823.662170 1012.239929,821.204712
	C1012.643005,812.593872 1013.387390,803.983459 1013.396606,795.372192
	C1013.495178,703.469727 1013.516907,611.567078 1013.428406,519.664612
	C1013.419861,510.790253 1013.419678,501.758911 1011.879456,493.072845
	C1007.522278,468.500488 993.466370,450.898132 970.816345,439.283020
	C969.877319,438.828064 968.938354,438.373108 967.915039,437.194702
z"/>
<path fill="#000000" opacity="1.000000" stroke="none"
	d="
M1.000002,650.468628
	C1.660372,650.870544 2.792623,651.681946 2.910320,652.620483
	C4.673099,666.678223 5.806286,680.833984 8.092375,694.802124
	C10.746511,711.019043 14.167961,727.121704 17.641527,743.190735
	C24.448101,774.678467 34.997692,805.041870 47.430450,834.646545
	C58.936428,862.044373 72.120277,888.759949 88.355515,913.739380
	C100.895691,933.033569 113.688217,952.220886 127.465324,970.635132
	C137.538681,984.098755 149.248245,996.359924 160.507004,1008.907227
	C167.940903,1017.191956 175.414413,1025.538574 183.672348,1032.965576
	C199.404266,1047.114624 215.594345,1060.763550 231.806747,1074.366943
	C252.827499,1092.004883 275.704376,1107.158447 299.516266,1120.551758
	C321.590424,1132.967651 344.637360,1143.778076 367.773621,1154.139648
	C384.398041,1161.584961 401.690491,1167.686890 419.014526,1173.386230
	C443.873596,1181.564697 469.262512,1187.918945 495.151337,1192.000854
	C510.919800,1194.487061 526.740784,1196.640625 542.541138,1198.923096
	C545.712280,1199.380981 548.896851,1199.745483 552.037598,1200.576660
	C368.406250,1201.000000 184.812485,1201.000000 1.000000,1201.000000
	C1.000000,1017.645813 1.000000,834.291565 1.000002,650.468628
z"/>
<path fill="#000000" opacity="1.000000" stroke="none"
	d="
M650.468628,1201.000000
	C650.870972,1200.339600 651.682861,1199.207520 652.621887,1199.089600
	C666.672119,1197.327026 680.815613,1196.171631 694.781860,1193.913086
	C710.835388,1191.317139 726.838806,1188.218750 742.681580,1184.550781
	C779.693298,1175.981567 815.375122,1163.440796 849.917725,1147.598999
	C875.021118,1136.086304 899.622070,1123.611450 922.484680,1108.091919
	C942.321106,1094.626587 961.886719,1080.720459 981.018066,1066.275513
	C991.157959,1058.619507 1000.225281,1049.517090 1009.580933,1040.856201
	C1018.105530,1032.964478 1026.742310,1025.139648 1034.667603,1016.666016
	C1054.089844,995.900085 1072.469849,974.260010 1089.049927,951.086975
	C1110.807983,920.676941 1129.791992,888.653687 1145.528442,854.781250
	C1157.260132,829.529053 1167.871582,803.750488 1175.069214,776.771667
	C1180.955566,754.708130 1186.697876,732.585510 1191.625122,710.294739
	C1194.353027,697.953308 1195.276489,685.212952 1197.012939,672.652344
	C1198.060181,665.076111 1199.106567,657.499817 1200.576660,649.961792
	C1201.000000,833.593750 1201.000000,1017.187500 1201.000000,1201.000000
	C1017.645813,1201.000000 834.291565,1201.000000 650.468628,1201.000000
z"/>
<path fill="#000000" opacity="1.000000" stroke="none"
	d="
M551.531372,0.999992
	C551.129395,1.660350 550.317993,2.792571 549.379333,2.910291
	C535.323364,4.673083 521.177734,5.846655 507.201080,8.082850
	C491.293762,10.627937 475.440369,13.681993 459.729309,17.245670
	C428.022614,24.437580 397.210358,34.719780 367.352356,47.430290
	C338.840668,59.567661 310.838287,73.038742 285.090881,90.495216
	C263.423584,105.185425 242.023834,120.299995 220.985703,135.875137
	C211.309464,143.038742 202.674713,151.636963 193.765854,159.800888
	C185.925659,166.985489 178.112946,174.230865 170.723267,181.870346
	C150.700699,202.569778 132.103470,224.506210 115.083214,247.748154
	C92.326492,278.823517 72.998291,311.958984 56.687088,346.814087
	C41.790546,378.646210 29.332176,411.444885 21.046293,445.646240
	C15.866603,467.026276 11.261668,488.571960 7.277368,510.205109
	C4.954448,522.817627 4.384393,535.751404 2.961125,548.533508
	C2.826788,549.739868 2.229228,550.894775 1.423365,552.036743
	C1.000000,368.406250 1.000000,184.812485 1.000000,1.000000
	C184.354172,1.000000 367.708435,1.000000 551.531372,0.999992
z"/>
<path fill="#000000" opacity="1.000000" stroke="none"
	d="
M1201.000000,551.531372
	C1200.339478,551.124939 1199.207397,550.309021 1199.089111,549.365967
	C1197.326172,535.311340 1196.172241,521.163208 1193.912109,507.192780
	C1191.315796,491.143585 1188.098389,475.174683 1184.562256,459.302063
	C1177.959473,429.664307 1168.295044,400.935272 1156.801025,372.883118
	C1144.834229,343.677673 1131.184937,315.165619 1113.915894,288.720764
	C1098.814697,265.595734 1082.522705,243.221680 1066.121948,220.984192
	C1058.977661,211.297607 1050.371826,202.666260 1042.197876,193.768646
	C1034.667969,185.571976 1027.097900,177.378632 1019.070679,169.678772
	C998.555908,150.000519 976.891296,131.672470 953.892822,114.912064
	C922.854431,92.292511 889.892639,72.939247 855.149475,56.675308
	C823.319458,41.775085 790.520813,29.311550 756.313721,21.038773
	C734.935669,15.868619 713.396179,11.257645 691.767456,7.273657
	C679.164795,4.952261 666.240906,4.383259 653.468689,2.961421
	C652.261963,2.827079 651.106628,2.231072 649.963745,1.424699
	C833.593750,1.000000 1017.187500,1.000000 1201.000000,1.000000
	C1201.000000,184.354172 1201.000000,367.708435 1201.000000,551.531372
z"/>
<path fill="#E0E0D1" opacity="1.000000" stroke="none"
	d="
M235.007431,802.083191
	C226.917267,796.617065 217.976822,792.065735 210.910446,785.498047
	C195.253998,770.946655 188.233200,752.145691 188.223404,730.873291
	C188.204544,689.880432 188.457352,648.887512 188.497910,607.894531
	C188.551651,553.567444 188.595001,499.240021 188.442307,444.913330
	C188.409088,433.101776 187.868011,421.351074 191.763885,409.919891
	C201.401047,381.642609 221.131531,364.713928 249.988968,358.213989
	C254.619019,357.171082 259.536041,357.089630 264.320404,357.089447
	C458.964386,357.082611 653.608459,357.094299 848.252258,357.287476
	C859.778442,357.298920 871.651733,357.348969 882.756042,359.962280
	C906.229065,365.486572 922.457214,380.666748 932.806274,403.106354
	C934.404053,408.793854 935.948608,413.797852 937.019165,418.901276
	C937.937378,423.278259 938.313354,427.768951 938.918457,432.655334
	C938.657715,438.918030 938.199585,444.734467 938.190735,450.551575
	C938.127930,491.680603 938.147705,532.809753 938.178772,573.938904
	C938.180847,576.759827 938.487427,579.580444 938.598633,582.839905
	C938.532654,629.562134 938.512695,675.845703 938.524475,722.129272
	C938.525330,725.506836 938.755615,728.884399 938.871948,732.679321
	C938.608215,735.574402 938.356567,738.052612 938.094666,740.529724
	C934.827087,771.429810 912.420349,797.377869 882.130249,804.895691
	C876.044006,806.406311 869.679810,806.797058 863.022949,807.598511
	C859.274597,807.387085 855.947144,807.188965 852.619690,807.188599
	C708.540588,807.173096 564.461426,807.174072 420.382294,807.186218
	C418.055511,807.186462 415.728760,807.351318 412.908417,807.364380
	C411.419891,807.225708 410.424957,807.106445 409.429993,807.106262
	C362.385101,807.098022 315.340210,807.089539 268.295349,807.141724
	C266.523682,807.143677 264.752655,807.746643 262.555664,808.040833
	C253.089142,806.035828 244.048279,804.059509 235.007431,802.083191
M544.500000,769.844604
	C628.718506,769.844604 712.937012,769.844604 798.176392,769.844604
	C781.749329,736.188049 785.080750,705.528625 810.503540,679.640137
	C836.400513,653.268799 867.636963,652.224854 900.435181,666.125427
	C900.435181,610.099426 900.435181,554.310852 900.435181,498.166138
	C867.141907,513.091064 836.300720,510.868958 810.531189,484.801453
	C784.955872,458.930450 781.897034,428.256348 797.842163,395.185486
	C641.349243,395.185486 485.647522,395.185486 329.436432,395.185486
	C343.851654,428.164978 342.285645,459.061829 316.326019,485.004303
	C290.312164,511.001038 259.354218,513.016846 226.405869,498.155243
	C226.405869,554.590576 226.405869,610.285156 226.405869,666.186829
	C259.382294,652.341248 290.375305,653.333740 316.339081,679.412170
	C342.281769,705.469421 343.941681,736.508423 329.236206,769.844177
	C401.257141,769.844177 472.378571,769.844177 544.500000,769.844604
z"/>
<path fill="#E0E0D1" opacity="1.000000" stroke="none"
	d="
M971.190552,439.787842
	C993.466370,450.898132 1007.522278,468.500488 1011.879456,493.072845
	C1013.419678,501.758911 1013.419861,510.790253 1013.428406,519.664612
	C1013.516907,611.567078 1013.495178,703.469727 1013.396606,795.372192
	C1013.387390,803.983459 1012.643005,812.593872 1012.118530,821.992920
	C1011.727783,823.376831 1011.330078,823.947510 1011.207642,824.572083
	C1007.670227,842.621704 997.633484,856.507507 983.309265,867.465820
	C967.673462,879.427429 949.695435,882.370972 930.330383,882.344727
	C735.713928,882.081177 541.096985,882.187378 346.480164,882.171570
	C339.987976,882.171082 333.311737,882.930786 327.035522,881.714539
	C300.348755,876.543579 280.741730,861.874023 269.857849,836.836792
	C285.174194,842.461121 300.625854,843.254150 316.356628,843.073425
	C345.582245,842.737793 374.814941,843.015015 404.209259,843.381104
	C406.759369,844.098511 409.144775,844.797607 411.530457,844.798401
	C562.765930,844.850098 714.001404,844.845215 865.236877,844.842468
	C866.902039,844.842468 868.603577,845.003906 870.218872,844.709473
	C871.201111,844.530396 872.050049,843.619995 873.429871,843.021606
	C880.894958,842.993103 887.891296,842.860596 894.882507,842.995850
	C906.864563,843.227478 918.380188,841.264832 929.486938,836.643066
	C957.327332,825.057983 969.301941,801.342712 975.514893,774.270020
	C977.874146,763.989380 975.892212,752.712463 975.926147,741.428955
	C975.957153,684.977905 975.950928,628.987549 975.969543,572.529297
	C975.995361,538.174133 976.271179,504.283020 975.804382,470.402130
	C975.687317,461.906677 973.170471,453.446411 971.790405,444.964447
	C971.511780,443.251709 971.386536,441.514008 971.190552,439.787842
z"/>
<path fill="#465062" opacity="1.000000" stroke="none"
	d="
M269.430939,836.781555
	C280.741730,861.874023 300.348755,876.543579 327.035522,881.714539
	C333.311737,882.930786 339.987976,882.171082 346.480164,882.171570
	C541.096985,882.187378 735.713928,882.081177 930.330383,882.344727
	C949.695435,882.370972 967.673462,879.427429 983.309265,867.465820
	C997.633484,856.507507 1007.670227,842.621704 1011.207642,824.572083
	C1011.330078,823.947510 1011.727783,823.376831 1012.105774,822.397217
	C1012.799011,823.662170 1013.911560,825.321472 1013.878906,826.958069
	C1013.716675,835.103638 1014.796326,843.692749 1012.581665,851.293274
	C1007.631348,868.282532 1002.209717,885.206482 988.024902,897.758972
	C976.112549,908.300598 962.791870,914.933472 947.158569,916.976013
	C941.898315,917.663269 936.549988,917.955872 931.241821,917.957153
	C734.163147,918.005066 537.084473,918.000793 340.005829,917.994873
	C302.112244,917.993713 271.248291,892.349243 264.628143,855.138062
	C263.614563,849.440735 263.112610,843.520203 263.437134,837.762878
	C263.658020,833.844971 262.068085,832.123352 259.332611,830.121765
	C249.304611,822.784180 240.284439,814.483826 235.094788,802.424438
	C244.048279,804.059509 253.089142,806.035828 262.562622,808.471375
	C265.140472,818.214233 267.285706,827.497925 269.430939,836.781555
z"/>
<path fill="#BAB9AD" opacity="1.000000" stroke="none"
	d="
M971.003418,439.535431
	C971.386536,441.514008 971.511780,443.251709 971.790405,444.964447
	C973.170471,453.446411 975.687317,461.906677 975.804382,470.402130
	C976.271179,504.283020 975.995361,538.174133 975.608521,572.559814
	C963.674561,578.685486 951.576477,582.159973 938.652344,582.401245
	C938.487427,579.580444 938.180847,576.759827 938.178772,573.938904
	C938.147705,532.809753 938.127930,491.680603 938.190735,450.551575
	C938.199585,444.734467 938.657715,438.918030 939.350830,432.599731
	C949.195679,434.038147 958.597534,435.978149 967.999329,437.918152
	C968.938354,438.373108 969.877319,438.828064 971.003418,439.535431
z"/>
<path fill="#465062" opacity="1.000000" stroke="none"
	d="
M967.957153,437.556427
	C958.597534,435.978149 949.195679,434.038147 939.361450,432.153748
	C938.313354,427.768951 937.937378,423.278259 937.019165,418.901276
	C935.948608,413.797852 934.404053,408.793854 933.038879,403.367737
	C939.432495,406.980164 946.844971,409.989044 952.017761,415.214844
	C958.303406,421.564911 962.700745,429.784119 967.957153,437.556427
z"/>
<path fill="#76C2AF" opacity="1.000000" stroke="none"
	d="
M544.000000,769.844360
	C472.378571,769.844177 401.257141,769.844177 329.236206,769.844177
	C343.941681,736.508423 342.281769,705.469421 316.339081,679.412170
	C290.375305,653.333740 259.382294,652.341248 226.405869,666.186829
	C226.405869,610.285156 226.405869,554.590576 226.405869,498.155243
	C259.354218,513.016846 290.312164,511.001038 316.326019,485.004303
	C342.285645,459.061829 343.851654,428.164978 329.436432,395.185486
	C485.647522,395.185486 641.349243,395.185486 797.842163,395.185486
	C781.897034,428.256348 784.955872,458.930450 810.531189,484.801453
	C836.300720,510.868958 867.141907,513.091064 900.435181,498.166138
	C900.435181,554.310852 900.435181,610.099426 900.435181,666.125427
	C867.636963,652.224854 836.400513,653.268799 810.503540,679.640137
	C785.080750,705.528625 781.749329,736.188049 798.176392,769.844604
	C712.937012,769.844604 628.718506,769.844604 544.000000,769.844360
M482.386383,660.110046
	C508.351196,686.000671 539.489136,697.932007 576.106812,693.955933
	C638.370300,687.194946 684.968689,629.669067 674.490417,564.597717
	C664.627136,503.345337 609.805908,462.916656 548.165283,470.938690
	C486.025970,479.025635 442.733643,537.396301 452.239136,599.090881
	C455.814178,622.294312 465.723541,642.512085 482.386383,660.110046
z"/>
<path fill="#65A192" opacity="1.000000" stroke="none"
	d="
M413.401978,807.439331
	C415.728760,807.351318 418.055511,807.186462 420.382294,807.186218
	C564.461426,807.174072 708.540588,807.173096 852.619690,807.188599
	C855.947144,807.188965 859.274597,807.387085 863.099243,808.000854
	C863.442871,820.701599 867.299316,831.911804 871.554626,842.928345
	C725.872314,842.960388 580.660706,842.974731 435.449127,842.982483
	C425.291321,842.983032 415.133545,842.934387 405.044098,842.555725
	C410.305511,831.194397 413.429718,819.692627 413.401978,807.439331
z"/>
<path fill="#BAB9AD" opacity="1.000000" stroke="none"
	d="
M872.025391,842.908997
	C867.299316,831.911804 863.442871,820.701599 863.520081,808.106445
	C869.679810,806.797058 876.044006,806.406311 882.130249,804.895691
	C912.420349,797.377869 934.827087,771.429810 938.094666,740.529724
	C938.356567,738.052612 938.608215,735.574402 939.311646,732.658081
	C952.607849,732.432190 964.516541,736.158936 975.888977,741.889648
	C975.892212,752.712463 977.874146,763.989380 975.514893,774.270020
	C969.301941,801.342712 957.327332,825.057983 929.486938,836.643066
	C918.380188,841.264832 906.864563,843.227478 894.882507,842.995850
	C887.891296,842.860596 880.894958,842.993103 873.196411,842.990356
	C872.491943,842.975464 872.025391,842.908997 872.025391,842.908997
z"/>
<path fill="#65A192" opacity="1.000000" stroke="none"
	d="
M975.926147,741.428955
	C964.516541,736.158936 952.607849,732.432190 939.318909,732.240723
	C938.755615,728.884399 938.525330,725.506836 938.524475,722.129272
	C938.512695,675.845703 938.532654,629.562134 938.598633,582.839905
	C951.576477,582.159973 963.674561,578.685486 975.583618,573.027710
	C975.950928,628.987549 975.957153,684.977905 975.926147,741.428955
z"/>
<path fill="#BAB9AD" opacity="1.000000" stroke="none"
	d="
M412.908417,807.364380
	C413.429718,819.692627 410.305511,831.194397 404.811584,842.589600
	C404.510742,842.976440 404.044678,843.036987 404.044678,843.036987
	C374.814941,843.015015 345.582245,842.737793 316.356628,843.073425
	C300.625854,843.254150 285.174194,842.461121 269.857849,836.836792
	C267.285706,827.497925 265.140472,818.214233 262.988281,808.500061
	C264.752655,807.746643 266.523682,807.143677 268.295349,807.141724
	C315.340210,807.089539 362.385101,807.098022 409.429993,807.106262
	C410.424957,807.106445 411.419891,807.225708 412.908417,807.364380
z"/>
<path fill="#76C2AF" opacity="1.000000" stroke="none"
	d="
M404.209259,843.381104
	C404.044678,843.036987 404.510742,842.976440 404.743225,842.942566
	C415.133545,842.934387 425.291321,842.983032 435.449127,842.982483
	C580.660706,842.974731 725.872314,842.960388 871.554626,842.928345
	C872.025391,842.908997 872.491943,842.975464 872.725403,843.006775
	C872.050049,843.619995 871.201111,844.530396 870.218872,844.709473
	C868.603577,845.003906 866.902039,844.842468 865.236877,844.842468
	C714.001404,844.845215 562.765930,844.850098 411.530457,844.798401
	C409.144775,844.797607 406.759369,844.098511 404.209259,843.381104
z"/>
<path fill="#4F5D73" opacity="1.000000" stroke="none"
	d="
M482.140564,659.855835
	C465.723541,642.512085 455.814178,622.294312 452.239136,599.090881
	C442.733643,537.396301 486.025970,479.025635 548.165283,470.938690
	C609.805908,462.916656 664.627136,503.345337 674.490417,564.597717
	C684.968689,629.669067 638.370300,687.194946 576.106812,693.955933
	C539.489136,697.932007 508.351196,686.000671 482.140564,659.855835
z"/>
</svg>
